<?xml version="1.0" encoding="iso-8859-1"?>
<svg id="topLogo" xmlns="http://www.w3.org/2000/svg" viewBox="0 0 387.1 111.97"><g id="61c52c45-eb2d-4c85-8fd3-c6dded4cefdb" data-name="Layer 2"><g id="574e8cdb-142f-4c17-b717-6fd68f7c227f" data-name="Layer 1"><rect x="162.08" y="11.81" width="18.02" height="17.91" style="fill:#04040b"></rect><rect x="162.08" y="38.75" width="18.02" height="42.54" style="fill:#04040b"></rect><rect x="2.91" width="43.74" height="4.51" style="fill:#13817d"></rect><path d="M31.86,37.87l-1-.27q-10.22-2.65-10.22-7.3a4.38,4.38,0,0,1,2.14-3.8,10.25,10.25,0,0,1,5.74-1.42,18.18,18.18,0,0,1,6.78,1.37,23.84,23.84,0,0,1,6.45,4l5.95-14a34.32,34.32,0,0,0-9.59-4.63,37.5,37.5,0,0,0-10.88-1.53q-10.81,0-17.45,5.92T3.1,31.79q0,7.83,4.52,12.67t14.2,7.36q7.24,1.85,9.43,3.75a6.73,6.73,0,0,1,2.18,5.34A6.36,6.36,0,0,1,31.06,66a9.32,9.32,0,0,1-6.16,2A18.47,18.47,0,0,1,16.3,66a27.55,27.55,0,0,1-7.83-6.4L0,72.61a38.2,38.2,0,0,0,11.49,7.77,33.81,33.81,0,0,0,13,2.4q12.28,0,19.66-6.37t7.39-17c0-5.71-1.54-10.25-4.6-13.64S38.86,39.72,31.86,37.87Z" style="fill:#04040b"></path><polygon points="122.81 55.6 111.11 11.81 96.25 11.81 84.57 55.6 71.37 11.81 51.76 11.81 76.45 81.29 91.67 81.29 103.74 40.66 115.71 81.29 130.9 81.29 155.63 11.81 136.02 11.81 122.81 55.6" style="fill:#04040b"></polygon><polygon points="230.69 65.99 209.05 65.99 209.05 53.48 229.78 53.48 229.78 38.72 209.05 38.72 209.05 27.11 230.69 27.11 230.69 11.81 190.92 11.81 190.92 81.29 230.69 81.29 230.69 65.99" style="fill:#04040b"></polygon><path d="M292,57.9a22.77,22.77,0,0,1-16.52,7.38q-8.22,0-13.41-5.13A17.67,17.67,0,0,1,256.81,47c0-5.74,1.74-10.36,5.15-13.88s7.94-5.29,13.5-5.29A22.39,22.39,0,0,1,292,35.21V14.64a25.16,25.16,0,0,0-8-3.24,46.32,46.32,0,0,0-10.5-1.08c-10.18,0-18.61,3.45-25.36,10.35S238,36.23,238,46.64s3.35,19,10.09,25.88,15.17,10.25,25.37,10.25a45.16,45.16,0,0,0,10.41-1.1A26.1,26.1,0,0,0,292,78.46Z" style="fill:#04040b"></path><polygon points="319.19 48.84 342.23 81.29 365.19 81.29 336.96 45.43 363.88 11.81 342.5 11.81 319.19 43.13 319.19 11.81 301.09 11.81 301.09 81.29 319.19 81.29 319.19 48.84" style="fill:#04040b"></polygon><rect x="369.05" y="11.81" width="18.05" height="17.91" style="fill:#04040b"></rect><rect x="369.05" y="38.75" width="18.05" height="42.54" style="fill:#04040b"></rect><path d="M86.64,94.72h4.15l-7.14,7.79,7.52,9.08H86.85l-6-7.59-.4.41v7.19H77.16V94.72h3.29v7.14Z" style="fill:#231f20"></path><path d="M96.36,108l-1.52,3.57H91.35l7.31-17.23h2.48l7.08,17.23h-3.52L103.27,108Zm3.52-8.73-2.45,6.07h4.81Z" style="fill:#231f20"></path><path d="M110.22,94.34h2.28l10.27,11.74V94.72h3.29v17.21h-2.28l-10.27-11.74v11.41h-3.29Z" style="fill:#231f20"></path><path d="M142.1,99.25a5.5,5.5,0,0,0-4.12-1.9,5.61,5.61,0,0,0-5.52,5.87,5.54,5.54,0,0,0,5.59,5.74,5.34,5.34,0,0,0,4-1.85V111a9,9,0,0,1-4.12,1,8.75,8.75,0,0,1-8.91-8.73A8.89,8.89,0,0,1,138,94.34a8.59,8.59,0,0,1,4.12,1Z" style="fill:#231f20"></path><path d="M148.45,97.58v3.75h5.82v2.86h-5.82v4.55h6v2.86h-9.33V94.72h9.33v2.86Z" style="fill:#231f20"></path><path d="M161,108.74h5.19v2.86h-8.48V94.72H161Z" style="fill:#231f20"></path><path d="M171.53,108,170,111.59h-3.49l7.31-17.23h2.48l7.08,17.23h-3.52L178.43,108ZM175,99.3l-2.45,6.07h4.81Z" style="fill:#231f20"></path><path d="M197.71,111.59h-4l-4.55-6.78h-.43v6.78h-3.29V94.72h4.88a6.7,6.7,0,0,1,4.3,1.19,5.23,5.23,0,0,1,.15,7.51,4.53,4.53,0,0,1-2.33,1.06Zm-8.07-9.11c2.07,0,3.21-.91,3.21-2.58s-1.09-2.53-3.16-2.53h-1v5.11Z" style="fill:#231f20"></path><path d="M203.23,111.59h-3.29V94.72h3.29Z" style="fill:#231f20"></path><path d="M210.19,108l-1.52,3.57h-3.49l7.31-17.23H215l7.08,17.23h-3.52L217.09,108Zm3.52-8.73-2.45,6.07h4.81Z" style="fill:#231f20"></path><path d="M233.46,108l-1.52,3.57h-3.49l7.31-17.23h2.48l7.08,17.23h-3.52L240.37,108ZM237,99.3l-2.45,6.07h4.81Z" style="fill:#231f20"></path><path d="M247.33,94.72h4.83a9.09,9.09,0,0,1,6,1.95,8.36,8.36,0,0,1,3,6.48,8.49,8.49,0,0,1-3.06,6.5,8.72,8.72,0,0,1-6,1.95h-4.81Zm4.17,14c2.13,0,3.47-.41,4.5-1.34a5.78,5.78,0,0,0,1.82-4.25,5.67,5.67,0,0,0-1.82-4.2c-1.09-1-2.38-1.37-4.5-1.37h-.88v11.16Z" style="fill:#231f20"></path><path d="M269.19,106.21l4.12-11.64h1.8L279,106.21l4-11.49h3.47l-6.35,17.21h-2.3l-3.74-11-3.95,11h-2.3l-6-17.21h3.47Z" style="fill:#231f20"></path><path d="M305.19,103.17a9,9,0,1,1-9-8.83A8.83,8.83,0,0,1,305.19,103.17Zm-14.65-.08a5.63,5.63,0,1,0,5.62-5.74A5.73,5.73,0,0,0,290.54,103.09Z" style="fill:#231f20"></path><path d="M317.71,94.72h4.15l-7.13,7.79,7.51,9.08h-4.33l-6-7.59-.41.41v7.19h-3.29V94.72h3.29v7.14Z" style="fill:#231f20"></path><path d="M327.43,108l-1.52,3.57h-3.49l7.31-17.23h2.48l7.08,17.23h-3.52L334.34,108Zm3.52-8.73-2.45,6.07h4.81Z" style="fill:#231f20"></path><path d="M352.81,99.25a5.5,5.5,0,0,0-4.12-1.9,5.61,5.61,0,0,0-5.52,5.87,5.54,5.54,0,0,0,5.59,5.74,5.34,5.34,0,0,0,4-1.85V111a9,9,0,0,1-4.12,1,8.75,8.75,0,0,1-8.91-8.73,8.89,8.89,0,0,1,8.91-8.91,8.59,8.59,0,0,1,4.12,1Z" style="fill:#231f20"></path><path d="M365.36,94.72h4.15l-7.13,7.79,7.51,9.08h-4.33l-6-7.59-.41.41v7.19h-3.29V94.72h3.29v7.14Z" style="fill:#231f20"></path><path d="M375.07,108l-1.52,3.57h-3.49l7.31-17.23h2.48l7.08,17.23h-3.52L382,108Zm3.52-8.73-2.45,6.07h4.81Z" style="fill:#231f20"></path></g></g></svg>